# Blender v2.82 (sub 7) OBJ File: 'tank.blend'
# www.blender.org
o Cylinder.002_Cylinder.003
v -2.500000 0.222276 -0.177374
v -2.500000 1.222276 -0.177373
v -2.451963 0.222276 -0.665099
v -2.451963 1.222276 -0.665099
v -2.309699 0.222276 -1.134082
v -2.309699 1.222276 -1.134082
v -2.078675 0.222276 -1.566299
v -2.078675 1.222276 -1.566299
v -1.767767 0.222276 -1.945141
v -1.767768 1.222276 -1.945141
v -1.388926 0.222276 -2.256048
v -1.388926 1.222276 -2.256048
v -0.956709 0.222276 -2.487072
v -0.956709 1.222276 -2.487072
v -0.487727 0.222277 -2.629337
v -0.487727 1.222277 -2.629337
v -0.000001 0.222277 -2.677374
v -0.000001 1.222277 -2.677374
v 0.487725 0.222277 -2.629338
v 0.487725 1.222277 -2.629338
v 0.956708 0.222277 -2.487073
v 0.956708 1.222277 -2.487073
v 1.388925 0.222277 -2.256049
v 1.388925 1.222277 -2.256049
v 1.767767 0.222277 -1.945142
v 1.767766 1.222277 -1.945142
v 2.078674 0.222277 -1.566300
v 2.078674 1.222277 -1.566300
v 2.309699 0.222277 -1.134083
v 2.309699 1.222277 -1.134083
v 2.451964 0.222276 -0.665100
v 2.451964 1.222277 -0.665100
v 2.500000 0.222276 -0.177374
v 2.500000 1.222277 -0.177374
v 2.451964 0.222276 0.310352
v 2.451964 1.222277 0.310352
v 2.309699 0.222276 0.779335
v 2.309699 1.222276 0.779335
v 2.078674 0.222276 1.211552
v 2.078674 1.222276 1.211552
v 1.767767 0.222276 1.590393
v 1.767767 1.222276 1.590393
v 1.388925 0.222276 1.901300
v 1.388925 1.222276 1.901300
v 0.956708 0.222276 2.132325
v 0.956708 1.222276 2.132325
v 0.487725 0.222276 2.274590
v 0.487725 1.222276 2.274590
v -0.000001 0.222276 2.322626
v -0.000001 1.222276 2.322626
v -0.487727 0.222276 2.274588
v -0.487728 1.222276 2.274588
v -0.956710 0.222276 2.132324
v -0.956711 1.222276 2.132324
v -1.388927 0.222276 1.901298
v -1.388928 1.222276 1.901298
v -1.767769 0.222276 1.590391
v -1.767769 1.222276 1.590391
v -2.078675 0.222276 1.211549
v -2.078675 1.222276 1.211549
v -2.309700 0.222276 0.779332
v -2.309700 1.222276 0.779332
v -2.451964 0.222276 0.310349
v -2.451964 1.222276 0.310349
v 1.000000 1.222277 -0.177374
v -1.000000 1.222276 -0.177373
v 1.000000 1.222277 -2.177373
v -1.000001 1.222277 -2.177373
v 0.000000 1.222276 -0.177373
v -0.000000 1.222277 -2.177373
v 0.500000 1.222277 -0.177374
v 0.500000 1.222277 -2.177373
v -0.501844 1.222277 -2.177373
v -0.501844 1.222276 -0.177373
v -1.000000 1.222276 -1.165747
v 1.000000 1.222277 -1.165748
v -0.000000 2.222277 -1.165748
v 0.500000 2.222277 -1.165748
v -0.501844 2.222277 -1.165747
v 1.000000 1.222277 -1.671561
v -0.000000 2.222277 -1.671560
v 0.500000 2.222277 -1.671561
v -0.501844 2.222277 -1.671560
v -1.000000 1.222276 -1.671560
v 1.000000 2.018262 -1.165748
v 0.591970 2.222277 -1.165748
v 1.000000 2.018262 -1.671561
v 0.591970 2.222277 -1.671561
v -0.564358 2.222277 -1.165747
v -1.000000 2.004456 -1.165747
v -1.000000 2.004456 -1.671560
v -0.564359 2.222277 -1.671560
v -0.000000 2.222277 -2.033451
v -0.000000 2.150316 -2.177373
v 0.500000 2.222277 -2.033451
v 0.500000 2.150316 -2.177373
v -0.501845 2.150316 -2.177373
v -0.501844 2.222277 -2.033451
v 0.532355 2.150316 -2.177373
v 0.591970 2.222277 -2.033451
v 1.000000 1.916493 -2.177373
v 1.000000 2.018262 -2.033451
v -1.000000 2.004456 -2.033451
v -1.000001 1.902687 -2.177373
v -0.504744 2.150316 -2.177373
v -0.564359 2.222277 -2.033451
v 0.000000 2.222277 -0.308102
v 0.000000 2.156912 -0.177373
v 0.500000 2.156912 -0.177373
v 0.500000 2.222277 -0.308102
v -0.501844 2.222277 -0.308102
v -0.501844 2.156912 -0.177373
v 1.000000 2.018262 -0.308102
v 1.000000 1.925823 -0.177374
v 0.537821 2.156912 -0.177374
v 0.591970 2.222277 -0.308102
v -0.510208 2.156912 -0.177373
v -0.564358 2.222277 -0.308102
v -1.000000 1.912016 -0.177373
v -1.000000 2.004456 -0.308102
v 1.000000 1.197276 0.989293
v 1.000000 1.447276 0.989293
v 0.980785 1.197276 1.184383
v 0.980785 1.447276 1.184383
v 0.923880 1.197276 1.371976
v 0.923880 1.447276 1.371976
v 0.831470 1.197276 1.544863
v 0.831470 1.447276 1.544863
v 0.707107 1.197276 1.696399
v 0.707107 1.447276 1.696399
v 0.555570 1.197276 1.820762
v 0.555570 1.447276 1.820762
v 0.382684 1.197276 1.913172
v 0.382684 1.447276 1.913172
v 0.195091 1.197276 1.970078
v 0.195090 1.447276 1.970078
v 0.000000 1.197276 1.989293
v 0.000000 1.447276 1.989293
v -0.195090 1.197276 1.970078
v -0.195090 1.447276 1.970078
v -0.382683 1.197276 1.913172
v -0.382683 1.447276 1.913172
v -0.555570 1.197276 1.820762
v -0.555570 1.447276 1.820762
v -0.707107 1.197276 1.696399
v -0.707107 1.447276 1.696399
v -0.831470 1.197276 1.544863
v -0.831470 1.447276 1.544863
v -0.923880 1.197276 1.371976
v -0.923880 1.447276 1.371976
v -0.980785 1.197276 1.184383
v -0.980785 1.447276 1.184383
v -1.000000 1.197276 0.989293
v -1.000000 1.447276 0.989293
v -0.980785 1.197276 0.794202
v -0.980785 1.447276 0.794202
v -0.923879 1.197276 0.606609
v -0.923879 1.447276 0.606609
v -0.831469 1.197276 0.433722
v -0.831469 1.447276 0.433722
v -0.707106 1.197276 0.282186
v -0.707106 1.447276 0.282186
v -0.555570 1.197276 0.157823
v -0.555570 1.447276 0.157823
v -0.382683 1.197276 0.065413
v -0.382683 1.447276 0.065413
v -0.195089 1.197276 0.008508
v -0.195089 1.447276 0.008508
v 0.000001 1.197276 -0.010707
v 0.000001 1.447276 -0.010707
v 0.195091 1.197276 0.008508
v 0.195091 1.447276 0.008508
v 0.382685 1.197276 0.065414
v 0.382685 1.447276 0.065414
v 0.555571 1.197276 0.157824
v 0.555571 1.447276 0.157824
v 0.707108 1.197276 0.282187
v 0.707108 1.447276 0.282187
v 0.831471 1.197276 0.433724
v 0.831471 1.447276 0.433724
v 0.923880 1.197276 0.606611
v 0.923880 1.447276 0.606611
v 0.980786 1.197276 0.794205
v 0.980786 1.447276 0.794205
vt 1.000000 0.338819
vt 0.968750 0.434020
vt 0.968750 0.338819
vt 0.937500 0.338819
vt 0.937500 0.434020
vt 0.906250 0.338819
vt 0.906250 0.434020
vt 0.875000 0.338819
vt 0.875000 0.434020
vt 0.843750 0.338819
vt 0.843750 0.434020
vt 0.812500 0.338819
vt 0.812500 0.434020
vt 0.781250 0.338819
vt 0.781250 0.434020
vt 0.750000 0.338819
vt 0.750000 0.434020
vt 0.718750 0.338819
vt 0.687500 0.434020
vt 0.687500 0.338819
vt 0.656250 0.338819
vt 0.625000 0.434020
vt 0.625000 0.338819
vt 0.593750 0.338819
vt 0.593750 0.434020
vt 0.562500 0.338819
vt 0.562500 0.434020
vt 0.531250 0.338819
vt 0.531250 0.434020
vt 0.500000 0.338819
vt 0.500000 0.434020
vt 0.468750 0.338819
vt 0.468750 0.434020
vt 0.437500 0.338819
vt 0.437500 0.434020
vt 0.406250 0.338819
vt 0.406250 0.434020
vt 0.375000 0.338819
vt 0.375000 0.434020
vt 0.343750 0.338819
vt 0.343750 0.434020
vt 0.312500 0.338819
vt 0.312500 0.434020
vt 0.281250 0.338819
vt 0.281250 0.434020
vt 0.250000 0.338819
vt 0.250000 0.434020
vt 0.218750 0.338819
vt 0.218750 0.434020
vt 0.187500 0.338819
vt 0.187500 0.434020
vt 0.156250 0.338819
vt 0.156250 0.434020
vt 0.125000 0.338819
vt 0.093750 0.434020
vt 0.093750 0.338819
vt 0.062500 0.434020
vt 0.062500 0.338819
vt 0.211814 0.209353
vt 0.193629 0.224276
vt 0.211814 0.039647
vt 0.031250 0.434020
vt 0.031250 0.338819
vt 0.000000 0.434020
vt 0.000000 0.338819
vt 0.902692 0.278689
vt 0.880073 0.282596
vt 0.880073 0.278689
vt 0.902692 0.251461
vt 0.862908 0.095326
vt 0.862908 0.095849
vt 0.832296 0.126461
vt 0.862083 0.345211
vt 0.862083 0.347233
vt 0.832855 0.376461
vt 0.834022 0.001461
vt 0.862908 0.032711
vt 0.746078 0.032711
vt 0.862083 0.313961
vt 0.746078 0.345211
vt 0.746078 0.313961
vt 0.862908 0.063961
vt 0.746078 0.095326
vt 0.746078 0.063961
vt 0.934305 0.278689
vt 0.987908 0.251461
vt 0.987908 0.278689
vt 0.880073 0.345211
vt 0.902692 0.350959
vt 0.880073 0.350959
vt 0.902692 0.282596
vt 0.934305 0.282596
vt 0.987908 0.313961
vt 0.934305 0.313961
vt 0.843851 0.188234
vt 0.746078 0.219848
vt 0.746078 0.188234
vt 0.902692 0.313961
vt 0.934305 0.345211
vt 0.902692 0.345211
vt 0.880073 0.376461
vt 0.845576 0.408074
vt 0.746078 0.439688
vt 0.746078 0.408074
vt 0.831130 0.251461
vt 0.862083 0.282596
vt 0.746078 0.282596
vt 0.880073 0.313961
vt 0.845576 0.493290
vt 0.834022 0.501461
vt 0.746078 0.501461
vt 0.934305 0.350959
vt 0.902692 0.376461
vt 0.845576 0.385456
vt 0.987908 0.345211
vt 0.843851 0.242466
vt 0.746078 0.251461
vt 0.843851 0.134631
vt 0.934305 0.251461
vt 0.987908 0.376461
vt 0.934305 0.376461
vt 0.845576 0.376461
vt 0.862083 0.282414
vt 0.843851 0.251461
vt 0.871078 0.278689
vt 0.996078 0.313961
vt 0.996078 0.345211
vt 0.996078 0.282596
vt 0.862908 0.030347
vt 0.845576 0.001461
vt 0.871078 0.026963
vt 0.996078 0.347575
vt 0.987908 0.350959
vt 0.843851 0.126461
vt 0.871078 0.095326
vt 0.871078 0.099233
vt 1.000000 1.000000
vt 0.968750 0.500000
vt 1.000000 0.500000
vt 0.968750 1.000000
vt 0.937500 0.500000
vt 0.937500 1.000000
vt 0.906250 0.500000
vt 0.875000 1.000000
vt 0.875000 0.500000
vt 0.843750 1.000000
vt 0.843750 0.500000
vt 0.812500 0.500000
vt 0.812500 1.000000
vt 0.781250 0.500000
vt 0.781250 1.000000
vt 0.750000 0.500000
vt 0.750000 1.000000
vt 0.718750 0.500000
vt 0.718750 1.000000
vt 0.687500 0.500000
vt 0.687500 1.000000
vt 0.656250 0.500000
vt 0.656250 1.000000
vt 0.625000 0.500000
vt 0.625000 1.000000
vt 0.593750 0.500000
vt 0.593750 1.000000
vt 0.562500 0.500000
vt 0.562500 1.000000
vt 0.531250 0.500000
vt 0.531250 1.000000
vt 0.500000 0.500000
vt 0.500000 1.000000
vt 0.468750 0.500000
vt 0.468750 1.000000
vt 0.437500 0.500000
vt 0.437500 1.000000
vt 0.406250 0.500000
vt 0.406250 1.000000
vt 0.375000 0.500000
vt 0.375000 1.000000
vt 0.343750 0.500000
vt 0.343750 1.000000
vt 0.312500 0.500000
vt 0.312500 1.000000
vt 0.281250 0.500000
vt 0.281250 1.000000
vt 0.250000 0.500000
vt 0.250000 1.000000
vt 0.218750 0.500000
vt 0.218750 1.000000
vt 0.187500 0.500000
vt 0.187500 1.000000
vt 0.156250 0.500000
vt 0.156250 1.000000
vt 0.125000 0.500000
vt 0.093750 1.000000
vt 0.093750 0.500000
vt 0.062500 0.500000
vt 0.966936 0.087206
vt 0.961481 0.091683
vt 0.966936 0.036294
vt 0.062500 1.000000
vt 0.031250 0.500000
vt 0.031250 1.000000
vt 0.000000 0.500000
vt 1.000000 0.434020
vt 0.718750 0.434020
vt 0.656250 0.434020
vt 0.125000 0.434020
vt 0.172883 0.235366
vt 0.150372 0.242194
vt 0.150372 0.006806
vt 0.126961 0.244500
vt 0.126961 0.004500
vt 0.103550 0.242194
vt 0.103550 0.006806
vt 0.081039 0.235366
vt 0.081039 0.013635
vt 0.060293 0.224277
vt 0.042108 0.209353
vt 0.060292 0.024724
vt 0.027185 0.191169
vt 0.042108 0.039647
vt 0.016095 0.170422
vt 0.027184 0.057832
vt 0.009267 0.147911
vt 0.016095 0.078578
vt 0.006961 0.124500
vt 0.009267 0.101089
vt 0.172883 0.013635
vt 0.193629 0.024724
vt 0.226737 0.057832
vt 0.237826 0.078578
vt 0.226737 0.191168
vt 0.244655 0.101089
vt 0.244655 0.147911
vt 0.246961 0.124500
vt 0.237826 0.170422
vt 0.880073 0.251461
vt 0.746078 0.126461
vt 0.746078 0.376461
vt 0.746078 0.001461
vt 0.987908 0.282596
vt 0.843851 0.219848
vt 0.845576 0.439688
vt 0.871078 0.350959
vt 0.906250 1.000000
vt 0.125000 1.000000
vt 0.955257 0.095010
vt 0.948503 0.097058
vt 0.948503 0.026442
vt 0.941480 0.097750
vt 0.941480 0.025750
vt 0.934457 0.097058
vt 0.934457 0.026442
vt 0.927703 0.095010
vt 0.927703 0.028490
vt 0.921480 0.091683
vt 0.916024 0.087206
vt 0.921479 0.031817
vt 0.911547 0.081751
vt 0.916024 0.036294
vt 0.908220 0.075527
vt 0.911547 0.041750
vt 0.906172 0.068773
vt 0.906172 0.054727
vt 0.905480 0.061750
vt 0.908220 0.047974
vt 0.955257 0.028490
vt 0.961481 0.031817
vt 0.971413 0.041750
vt 0.974740 0.047973
vt 0.971413 0.081751
vt 0.976788 0.054727
vt 0.974740 0.075527
vt 0.977480 0.061750
vt 0.976788 0.068773
vt 0.000000 1.000000
vn -0.9952 0.0000 -0.0980
vn -0.9569 0.0000 -0.2903
vn -0.8819 0.0000 -0.4714
vn -0.7730 0.0000 -0.6344
vn -0.6344 -0.0000 -0.7730
vn -0.4714 0.0000 -0.8819
vn -0.2903 -0.0000 -0.9569
vn -0.0980 -0.0000 -0.9952
vn 0.0980 0.0000 -0.9952
vn 0.2903 0.0000 -0.9569
vn 0.4714 0.0000 -0.8819
vn 0.6344 0.0000 -0.7730
vn 0.7730 0.0000 -0.6344
vn 0.8819 0.0000 -0.4714
vn 0.9569 0.0000 -0.2903
vn 0.9952 0.0000 -0.0980
vn 0.9952 0.0000 0.0980
vn 0.9569 0.0000 0.2903
vn 0.8819 0.0000 0.4714
vn 0.7730 0.0000 0.6344
vn 0.6344 0.0000 0.7730
vn 0.4714 0.0000 0.8819
vn 0.2903 0.0000 0.9569
vn 0.0980 0.0000 0.9952
vn -0.0980 -0.0000 0.9952
vn -0.2903 0.0000 0.9569
vn -0.4714 -0.0000 0.8819
vn -0.6344 0.0000 0.7730
vn -0.7730 0.0000 0.6344
vn -0.8819 -0.0000 0.4714
vn -0.0000 1.0000 0.0000
vn -0.9569 0.0000 0.2903
vn -0.9952 -0.0000 0.0980
vn -0.4472 0.8944 0.0000
vn 0.0000 0.0000 1.0000
vn 0.0000 0.0000 -1.0000
vn -1.0000 0.0000 0.0000
vn 0.4472 0.8944 0.0000
vn 1.0000 0.0000 -0.0000
vn 0.0000 0.8944 -0.4472
vn 0.3780 0.7559 -0.5345
vn -0.3780 0.7559 -0.5345
vn 0.0000 0.8944 0.4472
vn 0.3780 0.7559 0.5345
vn -0.3780 0.7559 0.5345
s off
f 1/1/1 4/2/1 3/3/1
f 4/2/2 5/4/2 3/3/2
f 6/5/3 7/6/3 5/4/3
f 8/7/4 9/8/4 7/6/4
f 10/9/5 11/10/5 9/8/5
f 12/11/6 13/12/6 11/10/6
f 14/13/7 15/14/7 13/12/7
f 16/15/8 17/16/8 15/14/8
f 18/17/9 19/18/9 17/16/9
f 19/18/10 22/19/10 21/20/10
f 22/19/11 23/21/11 21/20/11
f 23/21/12 26/22/12 25/23/12
f 26/22/13 27/24/13 25/23/13
f 28/25/14 29/26/14 27/24/14
f 30/27/15 31/28/15 29/26/15
f 32/29/16 33/30/16 31/28/16
f 34/31/17 35/32/17 33/30/17
f 36/33/18 37/34/18 35/32/18
f 38/35/19 39/36/19 37/34/19
f 40/37/20 41/38/20 39/36/20
f 42/39/21 43/40/21 41/38/21
f 44/41/22 45/42/22 43/40/22
f 46/43/23 47/44/23 45/42/23
f 48/45/24 49/46/24 47/44/24
f 50/47/25 51/48/25 49/46/25
f 52/49/26 53/50/26 51/48/26
f 54/51/27 55/52/27 53/50/27
f 56/53/28 57/54/28 55/52/28
f 57/54/29 60/55/29 59/56/29
f 59/56/30 62/57/30 61/58/30
f 10/59/31 8/60/31 26/61/31
f 61/58/32 64/62/32 63/63/32
f 63/63/33 2/64/33 1/65/33
f 92/66/31 98/67/31 106/68/31
f 106/68/34 91/69/34 92/66/34
f 112/70/35 117/71/35 119/72/35
f 96/73/36 99/74/36 101/75/36
f 114/76/35 109/77/35 71/78/35
f 94/79/36 72/80/36 70/81/36
f 108/82/35 74/83/35 69/84/35
f 89/85/34 120/86/34 118/87/34
f 109/77/35 69/84/35 71/78/35
f 95/88/31 88/89/31 100/90/31
f 89/85/31 83/91/31 92/66/31
f 118/87/31 79/92/31 89/85/31
f 79/92/31 107/93/31 77/94/31
f 90/95/37 84/96/37 75/97/37
f 81/98/31 78/99/31 82/100/31
f 83/91/31 77/94/31 81/98/31
f 78/99/31 88/89/31 82/100/31
f 88/89/38 102/101/38 100/90/38
f 87/102/39 76/103/39 80/104/39
f 104/105/36 97/106/36 73/107/36
f 93/108/31 82/100/31 95/88/31
f 97/106/36 70/81/36 73/107/36
f 113/109/39 114/110/39 65/111/39
f 86/112/38 87/113/38 88/89/38
f 102/114/39 87/102/39 80/104/39
f 110/115/31 86/112/31 78/99/31
f 103/116/37 104/105/37 68/117/37
f 120/118/37 90/95/37 75/97/37
f 92/66/34 90/119/34 89/85/34
f 86/112/38 113/120/38 85/121/38
f 93/108/40 97/106/40 98/67/40
f 95/88/40 94/79/40 93/108/40
f 99/74/41 102/122/41 101/75/41
f 99/74/40 95/88/40 100/90/40
f 105/123/42 103/124/42 106/125/42
f 105/123/40 98/67/40 97/106/40
f 83/91/31 93/108/31 98/67/31
f 110/115/43 108/126/43 109/127/43
f 107/93/43 112/128/43 108/126/43
f 115/129/44 113/130/44 116/131/44
f 110/115/43 115/132/43 116/133/43
f 117/71/45 120/134/45 119/72/45
f 117/71/43 111/135/43 118/136/43
f 107/93/31 78/99/31 77/94/31
f 122/137/17 123/138/17 121/139/17
f 124/140/18 125/141/18 123/138/18
f 126/142/19 127/143/19 125/141/19
f 127/143/20 130/144/20 129/145/20
f 129/145/21 132/146/21 131/147/21
f 132/146/22 133/148/22 131/147/22
f 134/149/23 135/150/23 133/148/23
f 136/151/24 137/152/24 135/150/24
f 138/153/25 139/154/25 137/152/25
f 140/155/26 141/156/26 139/154/26
f 142/157/27 143/158/27 141/156/27
f 144/159/28 145/160/28 143/158/28
f 146/161/29 147/162/29 145/160/29
f 148/163/30 149/164/30 147/162/30
f 150/165/32 151/166/32 149/164/32
f 152/167/33 153/168/33 151/166/33
f 154/169/1 155/170/1 153/168/1
f 156/171/2 157/172/2 155/170/2
f 158/173/3 159/174/3 157/172/3
f 160/175/4 161/176/4 159/174/4
f 162/177/5 163/178/5 161/176/5
f 164/179/6 165/180/6 163/178/6
f 166/181/7 167/182/7 165/180/7
f 168/183/8 169/184/8 167/182/8
f 170/185/9 171/186/9 169/184/9
f 172/187/10 173/188/10 171/186/10
f 174/189/11 175/190/11 173/188/11
f 176/191/12 177/192/12 175/190/12
f 177/192/13 180/193/13 179/194/13
f 180/193/14 181/195/14 179/194/14
f 130/196/31 128/197/31 146/198/31
f 182/199/15 183/200/15 181/195/15
f 184/201/16 121/202/16 183/200/16
f 1/1/1 2/203/1 4/2/1
f 4/2/2 6/5/2 5/4/2
f 6/5/3 8/7/3 7/6/3
f 8/7/4 10/9/4 9/8/4
f 10/9/5 12/11/5 11/10/5
f 12/11/6 14/13/6 13/12/6
f 14/13/7 16/15/7 15/14/7
f 16/15/8 18/17/8 17/16/8
f 18/17/9 20/204/9 19/18/9
f 19/18/10 20/204/10 22/19/10
f 22/19/11 24/205/11 23/21/11
f 23/21/12 24/205/12 26/22/12
f 26/22/13 28/25/13 27/24/13
f 28/25/14 30/27/14 29/26/14
f 30/27/15 32/29/15 31/28/15
f 32/29/16 34/31/16 33/30/16
f 34/31/17 36/33/17 35/32/17
f 36/33/18 38/35/18 37/34/18
f 38/35/19 40/37/19 39/36/19
f 40/37/20 42/39/20 41/38/20
f 42/39/21 44/41/21 43/40/21
f 44/41/22 46/43/22 45/42/22
f 46/43/23 48/45/23 47/44/23
f 48/45/24 50/47/24 49/46/24
f 50/47/25 52/49/25 51/48/25
f 52/49/26 54/51/26 53/50/26
f 54/51/27 56/53/27 55/52/27
f 56/53/28 58/206/28 57/54/28
f 57/54/29 58/206/29 60/55/29
f 59/56/30 60/55/30 62/57/30
f 6/207/31 4/208/31 32/209/31
f 4/208/31 2/210/31 34/211/31
f 2/210/31 64/212/31 36/213/31
f 64/212/31 62/214/31 38/215/31
f 62/214/31 60/216/31 38/215/31
f 60/216/31 58/217/31 40/218/31
f 38/215/31 60/216/31 40/218/31
f 58/217/31 56/219/31 42/220/31
f 56/219/31 54/221/31 44/222/31
f 42/220/31 56/219/31 44/222/31
f 54/221/31 52/223/31 46/224/31
f 52/223/31 50/225/31 48/226/31
f 46/224/31 52/223/31 48/226/31
f 46/224/31 44/222/31 54/221/31
f 42/220/31 40/218/31 58/217/31
f 38/215/31 36/213/31 64/212/31
f 36/213/31 34/211/31 2/210/31
f 34/211/31 32/209/31 4/208/31
f 32/209/31 30/227/31 6/207/31
f 30/227/31 28/228/31 6/207/31
f 28/228/31 26/61/31 8/60/31
f 6/207/31 28/228/31 8/60/31
f 26/61/31 24/229/31 10/59/31
f 24/229/31 22/230/31 12/231/31
f 10/59/31 24/229/31 12/231/31
f 22/230/31 20/232/31 16/233/31
f 20/232/31 18/234/31 16/233/31
f 16/233/31 14/235/31 22/230/31
f 14/235/31 12/231/31 22/230/31
f 61/58/32 62/57/32 64/62/32
f 63/63/33 64/62/33 2/64/33
f 92/66/31 83/91/31 98/67/31
f 106/68/34 103/236/34 91/69/34
f 66/237/35 74/83/35 119/72/35
f 74/83/35 112/70/35 119/72/35
f 67/238/36 72/80/36 101/75/36
f 72/80/36 96/73/36 101/75/36
f 71/78/35 65/239/35 114/76/35
f 114/76/35 115/129/35 109/77/35
f 94/79/36 96/73/36 72/80/36
f 108/82/35 112/70/35 74/83/35
f 89/85/34 90/119/34 120/86/34
f 109/77/35 108/82/35 69/84/35
f 95/88/31 82/100/31 88/89/31
f 89/85/31 79/92/31 83/91/31
f 118/87/31 111/240/31 79/92/31
f 79/92/31 111/240/31 107/93/31
f 90/95/37 91/241/37 84/96/37
f 81/98/31 77/94/31 78/99/31
f 83/91/31 79/92/31 77/94/31
f 78/99/31 86/112/31 88/89/31
f 88/89/38 87/113/38 102/101/38
f 87/102/39 85/242/39 76/103/39
f 73/107/36 68/117/36 104/105/36
f 104/105/36 105/123/36 97/106/36
f 93/108/31 81/98/31 82/100/31
f 97/106/36 94/79/36 70/81/36
f 65/111/39 76/103/39 113/109/39
f 76/103/39 85/242/39 113/109/39
f 86/112/38 85/121/38 87/113/38
f 80/104/39 67/238/39 102/114/39
f 67/238/39 101/75/39 102/114/39
f 110/115/31 116/133/31 86/112/31
f 68/117/37 84/96/37 103/116/37
f 84/96/37 91/241/37 103/116/37
f 75/97/37 66/237/37 120/118/37
f 66/237/37 119/72/37 120/118/37
f 92/66/34 91/69/34 90/119/34
f 86/112/38 116/133/38 113/120/38
f 93/108/40 94/79/40 97/106/40
f 95/88/40 96/73/40 94/79/40
f 99/74/41 100/243/41 102/122/41
f 99/74/40 96/73/40 95/88/40
f 105/123/42 104/105/42 103/124/42
f 105/123/40 106/68/40 98/67/40
f 83/91/31 81/98/31 93/108/31
f 110/115/43 107/93/43 108/126/43
f 107/93/43 111/240/43 112/128/43
f 115/129/44 114/76/44 113/130/44
f 110/115/43 109/127/43 115/132/43
f 117/71/45 118/136/45 120/134/45
f 117/71/43 112/70/43 111/135/43
f 107/93/31 110/115/31 78/99/31
f 122/137/17 124/140/17 123/138/17
f 124/140/18 126/142/18 125/141/18
f 126/142/19 128/244/19 127/143/19
f 127/143/20 128/244/20 130/144/20
f 129/145/21 130/144/21 132/146/21
f 132/146/22 134/149/22 133/148/22
f 134/149/23 136/151/23 135/150/23
f 136/151/24 138/153/24 137/152/24
f 138/153/25 140/155/25 139/154/25
f 140/155/26 142/157/26 141/156/26
f 142/157/27 144/159/27 143/158/27
f 144/159/28 146/161/28 145/160/28
f 146/161/29 148/163/29 147/162/29
f 148/163/30 150/165/30 149/164/30
f 150/165/32 152/167/32 151/166/32
f 152/167/33 154/169/33 153/168/33
f 154/169/1 156/171/1 155/170/1
f 156/171/2 158/173/2 157/172/2
f 158/173/3 160/175/3 159/174/3
f 160/175/4 162/177/4 161/176/4
f 162/177/5 164/179/5 163/178/5
f 164/179/6 166/181/6 165/180/6
f 166/181/7 168/183/7 167/182/7
f 168/183/8 170/185/8 169/184/8
f 170/185/9 172/187/9 171/186/9
f 172/187/10 174/189/10 173/188/10
f 174/189/11 176/191/11 175/190/11
f 176/191/12 178/245/12 177/192/12
f 177/192/13 178/245/13 180/193/13
f 180/193/14 182/199/14 181/195/14
f 126/246/31 124/247/31 152/248/31
f 124/247/31 122/249/31 154/250/31
f 122/249/31 184/251/31 156/252/31
f 184/251/31 182/253/31 158/254/31
f 182/253/31 180/255/31 158/254/31
f 180/255/31 178/256/31 160/257/31
f 158/254/31 180/255/31 160/257/31
f 178/256/31 176/258/31 162/259/31
f 176/258/31 174/260/31 164/261/31
f 162/259/31 176/258/31 164/261/31
f 174/260/31 172/262/31 168/263/31
f 172/262/31 170/264/31 168/263/31
f 168/263/31 166/265/31 174/260/31
f 166/265/31 164/261/31 174/260/31
f 162/259/31 160/257/31 178/256/31
f 158/254/31 156/252/31 184/251/31
f 156/252/31 154/250/31 122/249/31
f 154/250/31 152/248/31 124/247/31
f 152/248/31 150/266/31 126/246/31
f 150/266/31 148/267/31 126/246/31
f 148/267/31 146/198/31 128/197/31
f 126/246/31 148/267/31 128/197/31
f 146/198/31 144/268/31 130/196/31
f 144/268/31 142/269/31 132/270/31
f 130/196/31 144/268/31 132/270/31
f 142/269/31 140/271/31 134/272/31
f 140/271/31 138/273/31 136/274/31
f 134/272/31 140/271/31 136/274/31
f 134/272/31 132/270/31 142/269/31
f 182/199/15 184/201/15 183/200/15
f 184/201/16 122/275/16 121/202/16
